<svg aria-hidden="true" style="position: absolute; width: 0; height: 0; overflow: hidden;" version="1.1" xmlns="http://www.w3.org/2000/svg" xmlns:xlink="http://www.w3.org/1999/xlink">
<defs>
<symbol id="icon-Geo" viewBox="0 0 32 32">
<path d="M24.485 23.152l-8.485 8.485-8.485-8.485c-1.678-1.678-2.821-3.816-3.284-6.144s-0.225-4.741 0.683-6.933 2.446-4.067 4.42-5.385c1.973-1.319 4.293-2.022 6.667-2.022s4.693 0.704 6.667 2.022c1.973 1.319 3.511 3.193 4.42 5.385s1.146 4.606 0.683 6.933c-0.463 2.328-1.606 4.466-3.284 6.144zM16 17.333c0.707 0 1.385-0.281 1.886-0.781s0.781-1.178 0.781-1.886c0-0.707-0.281-1.386-0.781-1.886s-1.178-0.781-1.886-0.781c-0.707 0-1.385 0.281-1.886 0.781s-0.781 1.178-0.781 1.886c0 0.707 0.281 1.385 0.781 1.886s1.178 0.781 1.886 0.781z"></path>
</symbol>
<symbol id="icon-Phone" viewBox="0 0 32 32">
<path d="M28 21.893v4.715c0 0.338-0.128 0.663-0.358 0.91s-0.545 0.397-0.882 0.421c-0.583 0.040-1.059 0.061-1.427 0.061-11.783 0-21.333-9.551-21.333-21.333 0-0.368 0.020-0.844 0.061-1.427 0.024-0.337 0.174-0.652 0.421-0.882s0.572-0.358 0.91-0.358h4.715c0.165-0 0.325 0.061 0.448 0.172s0.2 0.263 0.216 0.428c0.031 0.307 0.059 0.551 0.085 0.736 0.265 1.849 0.808 3.648 1.611 5.335 0.127 0.267 0.044 0.585-0.196 0.756l-2.877 2.056c1.759 4.099 5.026 7.366 9.125 9.125l2.053-2.872c0.084-0.117 0.206-0.201 0.346-0.238s0.288-0.023 0.418 0.039c1.687 0.801 3.485 1.343 5.333 1.607 0.185 0.027 0.429 0.056 0.733 0.085 0.164 0.017 0.317 0.094 0.427 0.217s0.172 0.282 0.171 0.447h-0.001z"></path>
</symbol>
<symbol id="icon-youTube" viewBox="0 0 32 32">
<path d="M30.64 7.12c-0.868-1.544-1.81-1.828-3.728-1.936-1.916-0.13-6.734-0.184-10.908-0.184-4.182 0-9.002 0.054-10.916 0.182-1.914 0.11-2.858 0.392-3.734 1.938-0.894 1.542-1.354 4.198-1.354 8.874 0 0.004 0 0.006 0 0.006 0 0.004 0 0.006 0 0.006v0.004c0 4.656 0.46 7.332 1.354 8.858 0.876 1.544 1.818 1.824 3.732 1.954 1.916 0.112 6.736 0.178 10.918 0.178 4.174 0 8.992-0.066 10.91-0.176 1.918-0.13 2.86-0.41 3.728-1.954 0.902-1.526 1.358-4.202 1.358-8.858 0 0 0-0.006 0-0.010 0 0 0-0.004 0-0.006 0-4.678-0.456-7.334-1.36-8.876zM12 22v-12l10 6-10 6z"></path>
</symbol>
<symbol id="icon-facebook" viewBox="0 0 32 32">
<path d="M27.688 0h-23.376c-2.381 0-4.312 1.931-4.312 4.312v23.376c0 2.381 1.931 4.312 4.312 4.312h11.529l0.020-11.435h-2.971c-0.386 0-0.699-0.312-0.701-0.698l-0.014-3.686c-0.002-0.388 0.313-0.704 0.701-0.704h2.965v-3.562c0-4.133 2.524-6.384 6.211-6.384h3.026c0.387 0 0.701 0.314 0.701 0.701v3.108c0 0.387-0.314 0.701-0.701 0.701l-1.857 0.001c-2.005 0-2.393 0.953-2.393 2.351v3.083h4.406c0.42 0 0.745 0.367 0.696 0.784l-0.437 3.686c-0.042 0.353-0.341 0.618-0.696 0.618h-3.949l-0.020 11.435h6.86c2.381 0 4.312-1.931 4.312-4.312v-23.376c-0-2.382-1.931-4.312-4.312-4.312z"></path>
</symbol>
<symbol id="icon-instagram" viewBox="0 0 32 32">
<path d="M22.467 0h-12.934c-5.257 0-9.533 4.276-9.533 9.533v12.934c0 5.256 4.276 9.533 9.533 9.533h12.934c5.256 0 9.533-4.277 9.533-9.533v-12.934c-0-5.257-4.277-9.533-9.533-9.533zM28.781 22.467c0 3.487-2.827 6.314-6.314 6.314h-12.934c-3.487 0-6.314-2.827-6.314-6.314v-12.934c0-3.487 2.827-6.314 6.314-6.314h12.934c3.487 0 6.314 2.827 6.314 6.314v12.934z"></path>
<path d="M16 7.724c-4.564 0-8.276 3.713-8.276 8.276s3.713 8.276 8.276 8.276 8.276-3.713 8.276-8.276c0-4.564-3.713-8.276-8.276-8.276zM16 21.057c-2.793 0-5.057-2.264-5.057-5.057s2.264-5.057 5.057-5.057c2.793 0 5.057 2.264 5.057 5.057s-2.264 5.057-5.057 5.057z"></path>
<path d="M24.292 9.769c1.095 0 1.983-0.888 1.983-1.983s-0.888-1.983-1.983-1.983c-1.095 0-1.983 0.888-1.983 1.983s0.888 1.983 1.983 1.983z"></path>
</symbol>
<symbol id="icon-close-btn" viewBox="0 0 32 32">
<path d="M32 3.223l-3.223-3.223-12.777 12.777-12.777-12.777-3.223 3.223 12.777 12.777-12.777 12.777 3.223 3.223 12.777-12.777 12.777 12.777 3.223-3.223-12.777-12.777 12.777-12.777z"></path>
</symbol>
<symbol id="icon-canada" viewBox="0 0 32 32">
  <path 
    fill="#c8102e" 
    fill-rule="evenodd" 
    d="M15 0.037c-1.319 0.112-2.431 0.313-3.494 0.619-4.662 1.356-8.525 4.869-10.356 9.419-0.494 1.231-0.825 2.531-1.031 4.050-0.106 0.762-0.106 2.988 0 3.75 0.519 3.794 1.987 6.8 4.594 9.413 2.556 2.556 5.55 4.038 9.194 4.563 0.925 0.137 3.1 0.15 3.969 0.031 3.012-0.413 5.4-1.375 7.738-3.113 2.694-2.012 4.794-5.044 5.731-8.275 0.444-1.531 0.619-2.806 0.619-4.494 0-0.706-0.038-1.55-0.081-1.875-0.406-3.006-1.381-5.425-3.119-7.75-0.619-0.825-2.106-2.35-2.887-2.95-2.344-1.806-4.837-2.856-7.75-3.269-0.65-0.094-2.588-0.169-3.125-0.119zM20.469 5.75c3.413 0.581 5.913 2.919 5.906 5.525-0.006 1.306-0.55 2.475-1.637 3.513-0.569 0.537-1.019 0.85-1.769 1.225-1.556 0.781-3.475 1.113-5.369 0.925l-0.794-0.075-1.8 0.788c-0.994 0.431-1.863 0.788-1.938 0.788-0.175 0-0.444-0.269-0.444-0.444 0-0.069 0.2-0.613 0.444-1.206 0.244-0.587 0.456-1.1 0.475-1.137 0.012-0.037-0.169-0.213-0.412-0.387-0.238-0.181-0.606-0.512-0.819-0.744-2.406-2.631-1.531-6.112 2-7.919 1.812-0.925 3.963-1.225 6.156-0.85zM7.769 11.15c0.325 0.137 0.75 0.65 1.569 1.9 0.988 1.506 1.088 1.675 1.137 2 0.069 0.431-0.088 0.725-0.7 1.325-0.606 0.594-0.713 0.788-0.713 1.262 0 0.637 0.488 1.406 1.619 2.569 0.813 0.831 1.406 1.313 2.019 1.631 0.869 0.45 1.287 0.369 2-0.4 0.675-0.725 1.031-0.887 1.556-0.731 0.169 0.050 0.956 0.531 1.85 1.119 1.313 0.875 1.587 1.081 1.756 1.331 0.15 0.231 0.2 0.369 0.2 0.594 0 0.731-1.206 2.050-2.219 2.431-1.744 0.65-4.244-0.206-7-2.406-0.881-0.7-2.781-2.606-3.494-3.494-2.381-2.988-3.156-5.575-2.206-7.375 0.281-0.525 1.15-1.387 1.663-1.644 0.438-0.219 0.656-0.244 0.963-0.113z">
  </path>
  <path fill="#ffffff" d="M20.012 9.969c-0.25 0.231-0.281 0.294-0.225 0.387 0.094 0.156 0.262 0.175 0.406 0.044 0.119-0.106 0.119-0.088 0.119 1.056v1.169h0.438v-2.938h-0.225c-0.175 0-0.281 0.056-0.512 0.281z"></path>

  <path fill="#ffffff" d="M17.669 10.356c-0.025 0.019-0.044 0.244-0.044 0.494v0.456l-0.969 0.037v0.375l0.962 0.037 0.038 0.963h0.375l0.038-0.963 0.962-0.037 0.019-0.206 0.019-0.2h-1.006v-1h-0.175c-0.1 0-0.2 0.019-0.219 0.044z"></path>
</symbol>
<symbol id="highlight-badge" viewBox="0 0 290 177">
    <path 
      fill-rule="evenodd" 
      clip-rule="evenodd" 
      d="M27.7874 176.16C22.9401 176.568 20.5164 176.772 18.538 176.141C15.9001 175.299 13.7045 173.444 12.4342 170.984C11.4814 169.139 11.2775 166.715 10.8698 161.868L8.24266 130.638L4.30283 83.8037L0.382787 37.2043C-0.0249802 32.3569 -0.228864 29.9333 0.402211 27.9549C1.24364 25.3169 3.09852 23.1213 5.55879 21.851C7.40399 20.8983 9.82764 20.6944 14.675 20.2866L251.279 0.382966C256.127 -0.0248023 258.55 -0.228686 260.529 0.40239C263.167 1.24382 265.362 3.0987 266.632 5.55897C267.585 7.40417 267.789 9.82782 268.197 14.6751L271.53 54.2992C271.854 58.1516 275.24 61.0118 279.092 60.6878C282.945 60.3637 286.33 63.2239 286.654 67.0763L288.695 91.3307C289.103 96.178 289.306 98.6016 288.675 100.58C287.834 103.218 285.979 105.414 283.519 106.684C281.674 107.637 279.25 107.841 274.403 108.248L233.866 111.658C229.018 112.066 226.595 112.27 224.75 113.223C222.289 114.493 220.434 116.689 219.593 119.327C218.962 121.305 219.166 123.729 219.574 128.576L220.888 144.201C221.296 149.048 221.5 151.472 220.869 153.45C220.027 156.088 218.172 158.284 215.712 159.554C213.867 160.507 211.443 160.711 206.596 161.118L27.7874 176.16Z" 
      fill="#FEFF89" 
    />
  </symbol>
  <symbol id="icon-drop" viewBox="0 0 32 32">
<path d="M7.515 8.848l8.485-8.485 8.485 8.485c1.678 1.678 2.821 3.816 3.284 6.144s0.225 4.741-0.683 6.933c-0.908 2.193-2.446 4.067-4.42 5.385s-4.293 2.022-6.667 2.022-4.693-0.704-6.667-2.022c-1.973-1.319-3.511-3.193-4.42-5.385s-1.146-4.606-0.683-6.933 1.606-4.466 3.284-6.144z"></path>
</symbol>
<symbol id="icon-flame" viewBox="0 0 32 32">
<path d="M24.667 12c1.333 1.413 2 3.192 2 5.333 0 4.621-4.933 5.701-7.333 12-0.889-0.767-1.333-1.877-1.333-3.333 0-4.643 6.667-7.053 6.667-14zM19.333 6.666c1.6 1.651 2.4 3.429 2.4 5.333 0 6.601-8.060 7.589-6.4 17.333-2.223-1.547-3.333-3.769-3.333-6.667 0-4.433 7.333-8 7.333-16zM13.333 1.333c1.777 2.223 2.667 4.223 2.667 6 0 8.333-11.333 10.963-5.333 22-3.488-0.773-6-4-6-8 0-8.667 8.667-10 8.667-20z"></path>
</symbol>
<symbol id="icon-lightning" viewBox="0 0 32 32">
<path d="M17.333 13.333h9.333l-12 17.333v-12h-9.333l12-17.333v12z"></path>
</symbol>
<symbol id="icon-leav" viewBox="0 0 32 32">
<path fill="#fff" style="fill: var(--color1, #fff)" d="M30.964 9.139l-5.19 1.219-0.275-3.267-4.169 3.794 1.208-7.541-3.566 1.252-2.971-4.596-2.971 4.596-3.566-1.252 1.208 7.541-4.169-3.794-0.276 3.267-5.19-1.219 1.793 5.574-2.83 1.349 8.025 6.248-0.89 3.582 7.928-1.29v7.398h1.875v-7.398l7.928 1.29-0.89-3.582 8.025-6.248-2.83-1.349 1.794-5.574z"></path>
</symbol>
<symbol id="icon-check" viewBox="0 0 32 32">
<path fill="#fff" style="fill: var(--color1, #fff)" d="M13.333 20.229l12.256-12.257 1.887 1.885-14.143 14.143-8.485-8.485 1.885-1.885 6.6 6.6z"></path>
</symbol>
<symbol id="icon-eye" viewBox="0 0 32 32">
<path fill="#fff" style="fill: var(--color2, #fff)" d="M1.575 16c1.253-6.827 7.236-12 14.425-12s13.171 5.173 14.425 12c-1.253 6.827-7.236 12-14.425 12s-13.171-5.173-14.425-12zM16 22.667c1.768 0 3.464-0.702 4.714-1.953s1.953-2.946 1.953-4.714-0.702-3.464-1.953-4.714c-1.25-1.25-2.946-1.953-4.714-1.953s-3.464 0.702-4.714 1.953c-1.25 1.25-1.953 2.946-1.953 4.714s0.702 3.464 1.953 4.714c1.25 1.25 2.946 1.953 4.714 1.953zM16 20c-1.061 0-2.078-0.421-2.828-1.172s-1.172-1.768-1.172-2.828c0-1.061 0.421-2.078 1.172-2.828s1.768-1.172 2.828-1.172c1.061 0 2.078 0.421 2.829 1.172s1.171 1.768 1.171 2.828-0.421 2.078-1.171 2.828c-0.75 0.75-1.768 1.172-2.829 1.172z"></path>
</symbol>
<symbol id="icon-double-arrow" viewBox="0 0 32 32">
<path d="M2.7 6.7c-1.1 1-0.8 18.1 0.3 18.8 0.5 0.3 2.7-0.4 5-1.5 3.4-1.7 4-1.8 4-0.5 0 0.9 0.6 1.8 1.3 2.1 1.8 0.7 16.2-7.9 16.2-9.6s-14.4-10.3-16.2-9.6c-0.7 0.3-1.3 1.2-1.3 2.1 0 1.3-0.6 1.2-4-0.5-4.4-2.3-4.4-2.3-5.3-1.3zM23.3 12.4c2.6 1.5 4.7 3.2 4.7 3.6 0 0.5-1.5 1.7-3.2 2.8-1.8 1-5 2.9-7 4.1l-3.8 2.3v-2.4c0-1.5 1-2.9 3-4 1.7-0.9 3-2.2 3-2.8s-1.3-1.9-3-2.8c-2-1.1-3-2.5-3-4.1 0-2.2 0.1-2.2 2.3-0.9 1.2 0.8 4.3 2.7 7 4.2zM11.7 11.5c3.4 2 6.3 4 6.3 4.5 0 1.1-13.7 9-14.4 8.2-1.2-1.1-0.6-16.2 0.6-16.2 0.6 0 4 1.6 7.5 3.5z"></path>
</symbol>
<symbol id="icon-Star" viewBox="0 0 33 32">
<path d="M16.304 0l5.038 10.208 11.266 1.637-8.152 7.946 1.924 11.22-10.076-5.297-10.076 5.297 1.924-11.22-8.152-7.946 11.266-1.637 5.038-10.208z"></path>
</symbol>
</defs>
</svg>
